<svg width="24" height="24" viewBox="0 0 24 24" fill="none" xmlns="http://www.w3.org/2000/svg">
<path d="M3 3C1.57234 3 0.377595 3.99726 0.0743781 5.33316L12 12.621L23.9256 5.33316C23.6224 3.99725 22.4277 3 21 3H3Z" fill="black"/>
<path d="M0 17.7009V7.04563L8.70479 12.3652L0 17.7009Z" fill="black"/>
<path d="M10.1421 13.2436L0.287807 19.2838C0.768906 20.2984 1.80252 21 3 21H12.3841C12.1353 20.2962 12 19.5389 12 18.75C12 16.6754 12.9359 14.8194 14.4086 13.5811L13.8579 13.2436L12 14.379L10.1421 13.2436Z" fill="black"/>
<path d="M24 14.507V7.04563L15.2952 12.3652L15.8022 12.676C16.6929 12.2429 17.6931 12 18.75 12C20.8704 12 22.7625 12.9778 24 14.507Z" fill="black"/>
<path d="M23.7508 18.3663C23.7508 20.1174 22.8851 21.4029 21.3701 21.4029C20.6159 21.4029 19.8682 21.0618 19.6911 20.4322H19.6255C19.4485 21.0553 18.8123 21.3963 18.104 21.3963C16.9497 21.3963 16.2152 20.5831 16.2152 19.2452V18.4516C16.2152 17.1858 16.9366 16.3529 18.104 16.3529C18.9828 16.3529 19.4091 16.8513 19.5337 17.2973H19.5796V16.4447H20.9372V19.7305C20.9372 20.1371 21.2061 20.3601 21.5537 20.3601C22.0259 20.3601 22.5112 19.737 22.5112 18.2745V18.0974C22.5112 16.1824 21.0881 14.6084 18.7861 14.6084H18.727C16.3529 14.6084 14.7658 16.2086 14.7658 18.6943V18.9304C14.7658 21.7308 16.6218 22.9113 18.6221 22.9113H18.6877C19.4485 22.9113 20.0912 22.8064 20.4585 22.6424V23.7377C20.1305 23.8885 19.4944 24 18.6024 24H18.5368C15.6577 24 13.5 22.2292 13.5 18.9697V18.6483C13.5 15.5397 15.6315 13.5 18.727 13.5H18.7795C21.9603 13.5 23.7508 15.6446 23.7508 18.0515V18.3663ZM17.6908 18.6811V19.0222C17.6908 19.901 18.0319 20.2224 18.5631 20.2224C19.0287 20.2224 19.4091 19.9666 19.4091 19.1074V18.5565C19.4091 17.7826 18.9959 17.4941 18.55 17.4941C18.0319 17.4941 17.6908 17.8613 17.6908 18.6811Z" fill="black"/>
</svg>
